<svg width="28" height="28" viewBox="0 0 28 28" fill="none" xmlns="http://www.w3.org/2000/svg">
<path d="M19.2413 10.0683C18.7674 10.0683 18.3744 9.67161 18.3744 9.19327V7.58327C18.3744 6.35827 17.8543 5.16828 16.9528 4.33994C16.0397 3.49994 14.8609 3.11494 13.6126 3.23161C11.5322 3.42994 9.70608 5.57661 9.70608 7.81661V8.94828C9.70608 9.42661 9.31312 9.82327 8.83925 9.82327C8.36538 9.82327 7.97241 9.42661 7.97241 8.94828V7.80494C7.97241 4.66661 10.4805 1.77328 13.4508 1.48161C15.1845 1.31828 16.8488 1.86661 18.1201 3.04494C19.3799 4.19994 20.1081 5.85661 20.1081 7.58327V9.19327C20.1081 9.67161 19.7151 10.0683 19.2413 10.0683Z" fill="#E3E3E3"/>
<path d="M17.5077 26.5417H10.573C5.23332 26.5417 4.23935 24.0334 3.98508 21.595L3.11825 14.6067C2.99111 13.3467 2.94488 11.5384 4.15845 10.185C5.19865 9.01837 6.92076 8.45837 9.41724 8.45837H18.6635C21.1715 8.45837 22.8936 9.03004 23.9223 10.185C25.1243 11.5384 25.0896 13.3467 24.9625 14.5834L24.0956 21.595C23.8414 24.0334 22.8474 26.5417 17.5077 26.5417ZM9.41724 10.2084C7.46397 10.2084 6.12327 10.5934 5.44136 11.3634C4.87503 11.9934 4.69011 12.9617 4.84036 14.4084L5.70719 21.3967C5.90367 23.2634 6.41222 24.8034 10.573 24.8034H17.5077C21.6685 24.8034 22.177 23.275 22.3735 21.42L23.2404 14.4084C23.3906 12.985 23.2057 12.0167 22.6394 11.375C21.9574 10.5934 20.6167 10.2084 18.6635 10.2084H9.41724Z" fill="#E3E3E3"/>
<path d="M17.993 15.3416C17.3458 15.3416 16.8257 14.8166 16.8257 14.175C16.8257 13.5333 17.3458 13.0083 17.9815 13.0083C18.6171 13.0083 19.1372 13.5333 19.1372 14.175C19.1372 14.8166 18.6287 15.3416 17.993 15.3416Z" fill="#E3E3E3"/>
<path d="M9.90244 15.3416C9.25521 15.3416 8.73511 14.8166 8.73511 14.175C8.73511 13.5333 9.25521 13.0083 9.89089 13.0083C10.5266 13.0083 11.0467 13.5333 11.0467 14.175C11.0467 14.8166 10.5381 15.3416 9.90244 15.3416Z" fill="#E3E3E3"/>
</svg>
