<svg width="29" height="28" viewBox="0 0 29 28" fill="none" xmlns="http://www.w3.org/2000/svg">
<path d="M24.6926 9.76503L16.683 3.30169C15.4463 2.29836 13.4468 2.29836 12.2217 3.29003L4.21215 9.76503C3.31064 10.4884 2.73275 12.0167 2.92923 13.16L4.46642 22.4467C4.74381 24.1034 6.31567 25.445 7.97999 25.445H20.9247C22.5775 25.445 24.1609 24.0917 24.4383 22.4467L25.9755 13.16C26.1604 12.0167 25.5825 10.4884 24.6926 9.76503ZM14.4524 18.0834C12.8574 18.0834 11.5629 16.7767 11.5629 15.1667C11.5629 13.5567 12.8574 12.25 14.4524 12.25C16.0473 12.25 17.3418 13.5567 17.3418 15.1667C17.3418 16.7767 16.0473 18.0834 14.4524 18.0834Z" fill="#262626"/>
</svg>
