<svg width="29" height="28" viewBox="0 0 29 28" fill="none" xmlns="http://www.w3.org/2000/svg">
<path d="M14.5111 13.5567C14.4764 13.5567 14.4533 13.5567 14.4186 13.5567C14.3608 13.545 14.2799 13.545 14.2106 13.5567C10.8588 13.4517 8.32764 10.7917 8.32764 7.51337C8.32764 4.17671 11.0206 1.45837 14.3261 1.45837C17.6317 1.45837 20.3246 4.17671 20.3246 7.51337C20.3131 10.7917 17.7703 13.4517 14.5457 13.5567C14.5342 13.5567 14.5226 13.5567 14.5111 13.5567ZM14.3261 3.20837C11.9799 3.20837 10.0613 5.14504 10.0613 7.51337C10.0613 9.84671 11.8643 11.725 14.1643 11.8067C14.2221 11.795 14.3839 11.795 14.5342 11.8067C16.7995 11.7017 18.5794 9.82337 18.591 7.51337C18.591 5.14504 16.6724 3.20837 14.3261 3.20837Z" fill="#E3E3E3"/>
<path d="M14.5227 26.3083C12.2574 26.3083 9.98047 25.725 8.25836 24.5583C6.65183 23.485 5.77344 22.015 5.77344 20.4166C5.77344 18.8183 6.65183 17.3366 8.25836 16.2516C11.7257 13.93 17.3428 13.93 20.787 16.2516C22.382 17.325 23.2719 18.795 23.2719 20.3933C23.2719 21.9916 22.3935 23.4733 20.787 24.5583C19.0533 25.725 16.788 26.3083 14.5227 26.3083ZM9.21766 17.7216C8.10811 18.4683 7.50711 19.425 7.50711 20.4283C7.50711 21.42 8.11967 22.3766 9.21766 23.1116C12.0955 25.06 16.9498 25.06 19.8277 23.1116C20.9373 22.365 21.5383 21.4083 21.5383 20.405C21.5383 19.4133 20.9257 18.4566 19.8277 17.7216C16.9498 15.785 12.0955 15.785 9.21766 17.7216Z" fill="#E3E3E3"/>
</svg>
