<svg width="29" height="28" viewBox="0 0 29 28" fill="none" xmlns="http://www.w3.org/2000/svg">
<path d="M14.6832 26.4017C13.9089 26.4017 13.1229 26.2267 12.5104 25.865L6.15359 22.1667C3.56464 20.405 3.40283 20.1367 3.40283 17.3717V10.6283C3.40283 7.86335 3.55308 7.59502 6.0958 5.85668L12.4988 2.12335C13.7124 1.41168 15.6194 1.41168 16.833 2.12335L23.2129 5.83335C25.8018 7.59502 25.9636 7.86335 25.9636 10.6283V17.36C25.9636 20.125 25.8134 20.3933 23.2707 22.1317L16.8677 25.865C16.2435 26.2267 15.4576 26.4017 14.6832 26.4017ZM14.6832 3.34835C14.1978 3.34835 13.7239 3.44168 13.3888 3.64002L7.03198 7.35002C5.14806 8.63335 5.14806 8.63335 5.14806 10.6283V17.36C5.14806 19.355 5.14806 19.355 7.07821 20.6733L13.3888 24.3484C14.0707 24.745 15.3074 24.745 15.9893 24.3484L22.346 20.6383C24.2184 19.355 24.2184 19.355 24.2184 17.36V10.6283C24.2184 8.63335 24.2184 8.63335 22.2883 7.31502L15.9777 3.64002C15.6425 3.44168 15.1687 3.34835 14.6832 3.34835Z" fill="#E3E3E3"/>
<path d="M14.6833 18.375C12.2908 18.375 10.3491 16.415 10.3491 14C10.3491 11.585 12.2908 9.625 14.6833 9.625C17.0758 9.625 19.0175 11.585 19.0175 14C19.0175 16.415 17.0758 18.375 14.6833 18.375ZM14.6833 11.375C13.2501 11.375 12.0828 12.5533 12.0828 14C12.0828 15.4467 13.2501 16.625 14.6833 16.625C16.1165 16.625 17.2838 15.4467 17.2838 14C17.2838 12.5533 16.1165 11.375 14.6833 11.375Z" fill="#E3E3E3"/>
</svg>
