<svg width="178" height="178" viewBox="0 0 178 178" fill="none" xmlns="http://www.w3.org/2000/svg">
<g clip-path="url(#clip0_125_104)">
<path fill-rule="evenodd" clip-rule="evenodd" d="M145.144 86.9975C150.039 82.77 155.379 77.8009 160.348 72.6834C163.667 69.3329 166.787 65.7916 169.693 62.0775C172.593 59.0787 175.086 55.7125 177.11 52.065C178.326 49.51 178.486 46.5788 177.555 43.9067C176.344 40.8226 174.585 37.9831 172.363 35.5258C169.45 32.406 166.38 29.4356 163.167 26.6258C159.087 22.8433 155.008 16.465 150.262 11.7925C147.846 9.31418 144.975 7.32482 141.807 5.93335C139.587 5.2285 137.203 5.2285 134.983 5.93335C131.846 7.10988 128.858 8.65338 126.083 10.5317C121.425 13.3217 117.009 16.4972 112.882 20.025C107.022 25.3409 101.522 31.0396 96.4165 37.0833C84.7723 50.285 93.8948 51.3975 77.4298 33.0042L59.3332 14.3142C56.6864 11.2795 53.8101 8.4528 50.7298 5.85918C48.0018 3.87627 44.6795 2.88219 41.3107 3.04085C38.9693 3.17533 36.6881 3.83435 34.6357 4.96918C32.0806 6.36412 29.6046 7.89924 27.219 9.56751C25.2927 10.7369 23.4579 12.051 21.7307 13.4983L16.984 18.0225C13.12 22.3066 9.89733 27.1281 7.4165 32.3367C5.54228 35.9637 4.52724 39.9731 4.44983 44.055C4.58213 45.6355 5.09074 47.1613 5.93317 48.505C7.60801 50.7129 9.44236 52.7952 11.4215 54.735L39.3823 83.3633C39.855 83.8344 40.4951 84.0988 41.1623 84.0988C41.8296 84.0988 42.4697 83.8344 42.9423 83.3633C43.4011 82.8695 43.656 82.2203 43.656 81.5463C43.656 80.8722 43.4011 80.2231 42.9423 79.7292L15.649 50.9525C14.4623 49.5433 12.6823 47.9858 11.4215 46.2058C10.8151 45.5191 10.4277 44.6668 10.309 43.7583C10.5387 40.6558 11.4503 37.6421 12.979 34.9325C15.2063 30.322 18.0781 26.0517 21.5082 22.25C27.0387 16.4211 33.9524 12.0841 41.6073 9.64168C43.4366 9.60013 45.2222 10.2041 46.6507 11.3475C49.302 13.7931 51.7802 16.42 54.0673 19.2092L71.1257 37.6767C72.5348 39.3083 77.504 46.8733 81.2123 50.73C82.7127 52.5743 84.8123 53.8341 87.1457 54.29C89.1865 54.2904 91.1695 53.6121 92.7823 52.3617C96.1703 49.263 99.2959 45.8893 102.127 42.275C106.308 37.5651 110.74 33.0839 115.403 28.8508C119.976 24.7586 124.945 21.1313 130.237 18.0225C140.027 12.1633 142.771 18.0225 143.364 18.0225C148.037 22.695 152.19 29.1475 156.269 32.8558C158.791 35.2292 161.98 38.0475 164.65 41.0883C166.088 42.6853 167.241 44.5164 168.062 46.5025C168.432 47.5408 167.468 48.505 166.727 49.5433C165.169 51.7683 163.167 53.845 161.832 55.4767C159.083 58.8873 156.162 62.155 153.08 65.2667C148.333 70.1617 143.142 74.9825 138.247 79.0617C136.244 80.7675 132.758 82.9183 130.088 85.1433C128.493 86.3919 127.114 87.8955 126.009 89.5933C125.447 90.5353 125.151 91.6116 125.151 92.7083C125.151 93.8051 125.447 94.8814 126.009 95.8234C127.458 97.7416 129.125 99.4839 130.978 101.015C134.983 105.539 139.507 109.841 143.661 114.439C145.344 116.256 146.928 118.163 148.407 120.15C151.855 124.351 154.932 128.842 157.604 133.574C159.122 136.163 159.94 139.102 159.977 142.103C159.977 143.068 158.642 143.513 157.678 144.254C156.714 144.996 154.86 146.183 153.822 146.924C148.798 150.86 143.995 155.069 139.433 159.533C137.558 161.162 135.603 162.697 133.574 164.131C129.421 166.949 124.674 165.021 119.853 162.128C112.052 156.522 104.778 150.217 98.1223 143.29C95.6752 140.362 93.0758 137.564 90.3348 134.909C88.2347 133.258 85.5757 132.487 82.9182 132.758C80.7046 133.173 78.5746 133.95 76.614 135.058C72.9166 137.289 69.3734 139.767 66.0082 142.474C61.8548 145.441 57.4048 148.482 52.8065 151.3C48.2082 154.118 44.4998 157.382 39.6048 159.829L29.6665 165.614C28.3288 164.565 27.0878 163.399 25.9582 162.128C22.9915 158.643 19.9507 154.193 18.5415 152.783C15.1038 149.279 11.9771 145.482 9.1965 141.436C7.65388 139.25 6.7313 136.687 6.5265 134.019C6.69605 132.505 7.23051 131.054 8.084 129.792C9.87329 127.403 11.8051 125.124 13.869 122.968C17.8089 117.997 22.2037 113.403 26.9965 109.248C31.783 105.002 36.891 101.134 42.2748 97.6775C42.6446 97.4996 42.9724 97.2451 43.2362 96.9308C43.5001 96.6165 43.694 96.2497 43.8052 95.8546C43.9164 95.4596 43.9423 95.0455 43.8811 94.6397C43.8199 94.2339 43.6731 93.8458 43.4504 93.5011C43.2277 93.1565 42.9342 92.8631 42.5894 92.6406C42.2446 92.4181 41.8564 92.2715 41.4506 92.2105C41.0447 92.1496 40.6306 92.1757 40.2357 92.2871C39.8407 92.3985 39.474 92.5927 39.1598 92.8567C33.4774 96.2866 28.0716 100.155 22.9915 104.427C17.9013 108.743 13.2099 113.509 8.974 118.667C6.73468 121.018 4.62994 123.494 2.66983 126.083C1.16157 128.287 0.242414 130.84 -0.000165795 133.5C-0.0232342 137.596 1.19181 141.603 3.48567 144.996C6.41234 149.377 9.71271 153.496 13.3498 157.308C16.4159 161.675 19.7343 165.861 23.2882 169.842C24.7572 171.401 26.6755 172.464 28.7765 172.883C30.2854 172.861 31.7742 172.533 33.1523 171.918C36.4157 170.509 40.569 167.32 43.0165 166.282C47.7632 163.908 52.584 161.238 57.3307 158.346C62.0773 155.453 66.824 152.413 71.1257 149.372C73.3507 147.814 76.4657 145.367 79.6548 143.513C81.1446 142.475 82.8387 141.767 84.624 141.436C85.514 141.436 86.1815 142.103 86.9232 142.845C89.2965 145.144 91.3732 148.482 93.1532 150.262C101.186 159.14 110.482 166.787 120.743 172.957C123.596 174.511 126.811 175.275 130.058 175.171C133.304 175.066 136.464 174.097 139.211 172.363C141.551 170.754 143.804 169.021 145.96 167.172C150.376 162.98 155.005 159.019 159.829 155.305C162.512 153.663 165 151.722 167.246 149.52C168.772 147.866 169.711 145.754 169.916 143.513C170.028 138.843 168.875 134.23 166.578 130.163C163.727 124.924 160.401 119.958 156.64 115.329C154.981 113.104 153.199 110.975 151.3 108.951C147.221 104.353 142.697 100.125 138.766 95.6009L136.615 93.5983C139.507 91.0025 143.142 89 145.144 86.9975Z" fill="#161416"/>
</g>
<defs>
<clipPath id="clip0_125_104">
<rect width="178" height="178" fill="white"/>
</clipPath>
</defs>
</svg>
