<svg width="24" height="24" viewBox="0 0 24 24" fill="none" xmlns="http://www.w3.org/2000/svg">
<g clip-path="url(#clip0_1030_2110)">
<path fill-rule="evenodd" clip-rule="evenodd" d="M23.91 2.58C23.8561 2.41825 23.7548 2.27646 23.6192 2.17302C23.4837 2.06959 23.3202 2.00931 23.15 2C22.8085 2.02439 22.488 2.17394 22.25 2.42C21.0228 3.66224 19.8959 4.99976 18.88 6.42C16.38 9.74 13.36 14.16 12.01 16.2L11.52 16.95C10.1566 16.4551 8.7405 16.1195 7.29998 15.95C6.63541 15.8383 5.95512 15.8621 5.29998 16.02C5.21195 16.0552 5.13199 16.1079 5.06495 16.175C4.99791 16.242 4.94519 16.322 4.90998 16.41C4.87715 16.6072 4.88885 16.8092 4.94422 17.0013C4.99959 17.1933 5.09723 17.3706 5.22998 17.52C5.91494 18.3595 6.69707 19.1148 7.55998 19.77C9.45998 21.3 11.86 22.77 12.72 22.88C12.7647 22.8856 12.81 22.8822 12.8534 22.8701C12.8968 22.858 12.9374 22.8374 12.9727 22.8095C13.0081 22.7816 13.0375 22.7469 13.0594 22.7075C13.0812 22.6681 13.095 22.6248 13.1 22.58C13.1084 22.4887 13.0806 22.3977 13.0227 22.3266C12.9647 22.2556 12.8811 22.2101 12.79 22.2C11.3216 21.6321 9.96688 20.8057 8.78998 19.76C7.76247 18.9967 6.82631 18.1176 5.99998 17.14C5.92306 17.038 5.8529 16.9311 5.78998 16.82C5.86742 16.7928 5.94812 16.776 6.02998 16.77C7.04427 16.8082 8.05084 16.9625 9.02998 17.23C9.86142 17.4194 10.672 17.6907 11.45 18.04C11.5346 18.0907 11.6329 18.114 11.7313 18.1069C11.8297 18.0997 11.9235 18.0624 12 18C12.0859 17.9497 12.1527 17.8723 12.19 17.78V17.73C12.3 17.56 12.52 17.22 12.85 16.73C14.22 14.73 17.27 10.37 19.77 7.08C20.89 5.6 21.89 4.33 22.59 3.6C22.6802 3.50561 22.7809 3.42174 22.89 3.35C22.84 3.63 22.72 4 22.63 4.35C21.7765 7.03865 20.6994 9.65111 19.41 12.16C17.8915 15.3652 16.1436 18.4565 14.18 21.41C14.1563 21.4415 14.1391 21.4774 14.1294 21.5155C14.1196 21.5537 14.1174 21.5934 14.123 21.6324C14.1286 21.6714 14.1418 21.7089 14.1618 21.7428C14.1819 21.7767 14.2085 21.8064 14.24 21.83C14.3052 21.8783 14.3868 21.8991 14.4672 21.8878C14.5476 21.8766 14.6204 21.8343 14.67 21.77C17.9456 17.0462 20.7364 12.004 23 6.72C23.4353 5.75694 23.7704 4.75165 24 3.72C24.07 3.33866 24.039 2.94562 23.91 2.58Z" fill="black"/>
<path fill-rule="evenodd" clip-rule="evenodd" d="M9.10999 14.07C10.37 12.34 12.11 10.07 13.74 7.97001L15.74 5.37001C16.74 4.14001 17.5 3.10001 18.06 2.50001C18.16 2.40001 18.25 2.28001 18.33 2.19001C18.3394 2.23957 18.3394 2.29046 18.33 2.34001C18.3049 2.77358 18.2311 3.20295 18.11 3.62001C18 4.24001 17.75 5.00002 17.45 5.80001C17.4257 5.83789 17.4102 5.88075 17.4046 5.92543C17.3991 5.97011 17.4037 6.01545 17.4181 6.0581C17.4325 6.10076 17.4563 6.13962 17.4878 6.17182C17.5193 6.20402 17.5576 6.22873 17.5999 6.24411C17.6422 6.2595 17.6874 6.26516 17.7322 6.26069C17.777 6.25622 17.8202 6.24173 17.8586 6.21828C17.8971 6.19484 17.9297 6.16304 17.9542 6.12526C17.9787 6.08748 17.9943 6.04467 18 6.00001C18.5619 4.85742 18.9753 3.64758 19.23 2.40001C19.31 1.58001 18.96 1.19001 18.5 1.14001C18.217 1.1454 17.946 1.2559 17.74 1.45001C16.6673 2.42163 15.6896 3.49313 14.82 4.65001C14.19 5.45002 13.51 6.36001 12.82 7.30001C11.25 9.48001 9.68999 11.88 8.51999 13.68C8.48493 13.7552 8.4777 13.8404 8.4996 13.9204C8.52149 14.0004 8.57109 14.07 8.63954 14.1168C8.708 14.1637 8.79086 14.1847 8.87336 14.1761C8.95586 14.1675 9.03263 14.1299 9.08999 14.07H9.10999Z" fill="black"/>
<path fill-rule="evenodd" clip-rule="evenodd" d="M6.66 22C6.1 21.89 5.06 20.7 4 19.34C3.57 18.8 3.15 18.21 2.75 17.66C2.35 17.11 1.91 16.45 1.6 15.93C1.38674 15.614 1.20265 15.2793 1.05 14.93C1.05 14.93 1.05 14.93 1.05 14.88C1.95636 14.8644 2.85989 14.9857 3.73 15.24C3.76742 15.2538 3.8072 15.2601 3.84706 15.2585C3.88691 15.2569 3.92606 15.2475 3.96228 15.2308C3.99849 15.2141 4.03106 15.1904 4.05812 15.1611C4.08518 15.1318 4.10621 15.0974 4.12 15.06C4.13379 15.0226 4.14007 14.9828 4.13848 14.943C4.1369 14.9031 4.12748 14.864 4.11077 14.8277C4.09405 14.7915 4.07037 14.759 4.04107 14.7319C4.01177 14.7048 3.97742 14.6838 3.94 14.67C3.05385 14.3141 2.12084 14.0885 1.17 14C0.878676 13.9563 0.580939 13.9944 0.309998 14.11C0.203543 14.1679 0.119175 14.2593 0.0699978 14.37C0.00516386 14.6406 -0.00523814 14.9214 0.0393963 15.1961C0.0840308 15.4708 0.182811 15.7339 0.329998 15.97C0.759706 16.8511 1.27912 17.6855 1.88 18.46C3.46 20.55 5.66 22.61 6.54 22.74C6.584 22.7487 6.6293 22.7486 6.67327 22.7398C6.71724 22.7309 6.75903 22.7134 6.79621 22.6883C6.83339 22.6632 6.86524 22.631 6.88992 22.5935C6.91459 22.5561 6.93161 22.5141 6.94 22.47C6.96061 22.421 6.96941 22.3677 6.96569 22.3146C6.96198 22.2616 6.94585 22.2101 6.91862 22.1644C6.89138 22.1186 6.85379 22.0799 6.80887 22.0514C6.76395 22.0229 6.71296 22.0053 6.66 22Z" fill="black"/>
</g>
<defs>
<clipPath id="clip0_1030_2110">
<rect width="24" height="24" fill="white"/>
</clipPath>
</defs>
</svg>
